<?xml version="1.0" encoding="UTF-8"?>
<svg id="b" data-name="Layer 2" xmlns="http://www.w3.org/2000/svg" width="536.122" height="340.783" viewBox="0 0 536.122 340.783">
  <g id="c" data-name="Layer 1">
    <g>
      <path d="m199.531,113.038c7.528-5.985,11.935-6.5,19.396-.63,2.612,2.055,4.642,6.631,4.506,9.956-.181,4.449-1.54,10.119-4.57,12.851-3.549,3.2-9.028,6.739-14.736,2.043-2.518-2.072-7.011-3.166-7.81-5.616-1.811-5.553-2.257-11.657-2.518-17.569-.142-3.215,1.546-6.467,1.853-9.754.502-5.388,3.419-8.405,8.079-10.816,8.589-4.445,14.087-2.725,18.091,6.715-1.299.776-2.653,1.586-2.758,1.648-3.872-2.185-7.116-5.606-9.799-5.211-6.264.921-9.324,6.986-9.734,16.383Zm17.997,10.778c-.154-5.063-4.73-10.298-8.88-10.159-3.919.131-8.82,6.113-8.694,10.609.133,4.72,5.265,10.404,9.128,10.109,4.427-.338,8.598-5.553,8.445-10.56Z"/>
      <path d="m520.646,121.769c-.128,8.435-8.628,17.915-15.919,17.754-7.519-.166-15.757-9.627-15.663-17.988.093-8.307,8.732-18.018,15.893-17.866,7.308.155,15.812,9.966,15.689,18.101Zm-25.63-.054c.027,6.287,5.109,12.925,9.853,12.867,4.854-.059,9.846-6.644,9.808-12.939-.038-6.222-5.205-12.984-9.869-12.915-4.725.07-9.817,6.824-9.791,12.987Z"/>
      <path d="m484.631,121.559c.163,8.26-8.22,17.868-15.684,17.977-7.29.106-15.748-9.356-15.901-17.788-.147-8.07,8.365-17.855,15.719-18.071,7.126-.209,15.7,9.454,15.866,17.881Zm-5.805.386c.176-5.888-5.009-12.947-9.692-13.194-4.732-.25-9.847,6.178-10.084,12.672-.223,6.113,4.725,12.914,9.552,13.13,4.786.214,10.034-6.258,10.224-12.608Z"/>
      <path d="m131.594,144.661h-5.608v-59.015c1.77-.089,3.493-.175,5.608-.281v59.296Z"/>
      <path d="m462.994,210.092v-59.106h5.662v59.106h-5.662Z"/>
      <path d="m356.429,150.847h5.64v59.241h-5.64v-59.241Z"/>
      <path d="m497.713,150.877h5.354v59.298h-5.354v-59.298Z"/>
      <path d="m245.588,86.905c2.078-.587,3.485-.984,5.421-1.53,5.159,19.243,10.258,38.263,15.531,57.932-1.679.49-3.28.957-5.385,1.572-5.232-19.486-10.341-38.512-15.567-57.973Z"/>
      <path d="m531.273,274.124c-1.985.569-3.525,1.01-5.385,1.543-5.222-19.436-10.341-38.494-15.554-57.895,1.73-.541,3.247-1.016,5.39-1.687,5.193,19.383,10.288,38.401,15.549,58.04Z"/>
      <path d="m360.419,143.423c-1.913.495-3.44.89-5.425,1.404-5.226-19.447-10.344-38.491-15.536-57.81,1.739-.54,3.266-1.014,5.391-1.673,5.172,19.293,10.274,38.322,15.571,58.079Z"/>
      <path d="m141.981,208.897c-2.038.505-3.439.852-5.411,1.34-5.184-19.316-10.332-38.5-15.552-57.948,1.971-.528,3.37-.902,5.445-1.458,5.177,19.37,10.298,38.536,15.518,58.066Z"/>
      <path d="m334.975,78.023c-1.98.596-3.372,1.016-5.346,1.611-5.196-19.319-10.339-38.443-15.597-57.992,1.872-.559,3.362-1.004,5.42-1.618,5.19,19.391,10.271,38.378,15.523,58Z"/>
      <path d="m301.439,210.33c-2.008-.588-3.408-.998-5.378-1.574,5.157-19.3,10.245-38.342,15.433-57.761,1.84.395,3.359.721,5.484,1.177-5.211,19.504-10.303,38.559-15.539,58.159Z"/>
      <path d="m530.728,281.561c1.958.54,3.355.925,5.394,1.488-5.151,19.292-10.229,38.307-15.417,57.734-1.926-.39-3.46-.7-5.501-1.114,5.2-19.467,10.283-38.495,15.523-58.109Z"/>
      <path d="m144.402,79.578c-2.111-.628-3.511-1.045-5.369-1.598,5.175-19.339,10.269-38.377,15.482-57.859,1.893.519,3.389.929,5.399,1.48-5.2,19.435-10.293,38.47-15.512,57.977Z"/>
      <path d="m22.382,295.384c1.08,1.807,1.836,3.072,2.818,4.716-6.42,3.841-12.743,7.623-19.578,11.712,6.838,4.137,13.164,7.964,19.653,11.889-.963,1.654-1.776,3.051-2.861,4.915-6.958-4.208-13.781-8.178-20.427-12.425-2.868-1.833-2.55-6.849.43-8.706,6.458-4.024,13.009-7.898,19.965-12.101Z"/>
      <path d="m255.129,199.212h36.038c.072,1.453.14,2.848.209,4.233-.783.227-1.246.476-1.71.478-10.461.044-20.923-.011-31.382.123-3.601.046-4.407-1.431-3.155-4.835Z"/>
      <path d="m453.239,198.934v4.744h-36.164c-.9-2.867-.907-4.792,2.742-4.769,10.946.07,21.893.025,33.422.025Z"/>
      <path d="m183.827,200.463c-1.109,1.176-2.195,3.348-3.331,3.374-11.135.256-22.279.154-33.708.154v-4.764h36.002c.346.412.691.824,1.037,1.236Z"/>
      <path d="m191.705,203.743v-4.549h36.367c.077,1.488.149,2.874.236,4.549h-36.603Z"/>
      <path d="m371.702,199.201h36.444v4.466h-36.444v-4.466Z"/>
      <path d="m237.099,68.635v4.139c-.77.178-1.545.509-2.321.512-10.141.04-20.283-.07-30.421.097-3.451.057-4.565-1.149-3.489-4.748h36.232Z"/>
      <path d="m221.356,334.482h-35.643c-.13-1.41-.257-2.782-.448-4.848,11.765,0,23.147-.09,34.521.159.981.021,1.914,2.279,2.869,3.498-.433.397-.866.794-1.3,1.191Z"/>
      <path d="m230.605,334.356v-4.716c11.592,0,23.012-.089,34.424.164.944.021,1.836,2.366,3.419,4.552h-37.842Z"/>
      <path d="m311.986,329.618v4.778h-36.194c-.279-2.338-1.359-4.774,2.575-4.776,11.069-.006,22.138-.002,33.619-.002Z"/>
      <path d="m356.972,334.422h-36.077c-.999-3.438-.265-4.946,3.568-4.872,9.639.185,19.285.169,28.924.002,3.353-.058,4.703.969,3.585,4.87Z"/>
      <path d="m402.083,334.415h-36.068c-1.076-3.564-.14-4.934,3.605-4.864,9.635.179,19.279.181,28.914-.005,3.464-.067,4.562,1.155,3.549,4.869Z"/>
      <path d="m161.172,269.225h-36.145c-.074-1.536-.141-2.902-.221-4.57h36.367v4.57Z"/>
      <path d="m80.304,264.549h35.762c.138,1.404.274,2.788.476,4.846-11.782,0-23.21.091-34.631-.16-.992-.022-1.934-2.3-2.899-3.529.431-.385.862-.771,1.292-1.156Z"/>
      <path d="m72.01,265.786c-1.012,1.204-2.001,3.432-3.039,3.455-11.244.252-22.496.157-34.058.157v-4.78h35.85c.416.389.832.778,1.248,1.167Z"/>
      <path d="m510.159,334.386h-35.881v-4.762c11.445,0,22.551-.104,33.649.159,1.118.027,2.182,2.273,3.272,3.49-.346.371-.693.742-1.039,1.112Z"/>
      <path d="m428.151,333.12c1.126-1.167,2.23-3.322,3.382-3.348,11.071-.256,22.149-.153,33.602-.153.127,1.697.23,3.064.356,4.75h-35.965c-.458-.416-.916-.832-1.374-1.249Z"/>
      <path d="m197.025,7.546h-35.758c-1.098-3.209-.63-4.883,3.087-4.841,9.819.11,19.642.136,29.46-.014,3.664-.056,4.29,1.497,3.211,4.855Z"/>
      <path d="m242.269,2.746v4.763h-35.923c-.61-2.624-1.125-4.795,2.674-4.779,10.912.046,21.825.016,33.25.016Z"/>
      <path d="m318.586,7.555h-35.863V2.769c11.54,0,22.792-.095,34.036.155,1.067.024,2.085,2.215,3.126,3.4-.433.41-.866.821-1.299,1.231Z"/>
      <path d="m176.62,329.614c.088,1.813.148,3.067.227,4.69h-36.133c-.587-2.578-1.112-4.763,2.954-4.724,10.782.102,21.566.035,32.951.035Z"/>
      <path d="m95.562,334.308c-.679-3.024-.441-4.796,3.119-4.747,10.793.148,21.589.053,32.821.053.148,1.595.276,2.975.436,4.694h-36.376Z"/>
      <path d="m86.274,334.469h-35.393c-.949-4.709-.949-4.81,3.123-4.837,9.616-.063,19.235.08,28.849-.073,3.472-.056,4.533,1.229,3.42,4.91Z"/>
      <path d="m245.331,238.272v4.462h-29.631v-4.462h29.631Z"/>
      <path d="m245.379,248.52v4.733h-29.516c-.894-3.215-.45-4.897,3.511-4.798,8.46.212,16.928.065,26.005.065Z"/>
      <path d="m292.796,228.245q-8.22,9.042-10.342,7.829c2.472-4.459,4.946-8.93,7.427-13.398,1.662-2.992,3.293-2.953,4.969.016,2.448,4.336,4.939,8.647,7.405,12.955q-2.838,2.622-5.391-1.212c-1.346-2.027-2.673-4.066-4.069-6.191Z"/>
      <path d="m263.627,222.643h6.366c-.358,4.6-.603,8.997-1.127,13.36-.099.822-1.308,1.51-2.005,2.261-.701-.759-1.909-1.453-2.016-2.289-.548-4.248-.811-8.532-1.218-13.332Z"/>
      <path d="m253.054,222.723h6.419c-.394,4.699-.668,9.115-1.224,13.496-.096.76-1.381,1.369-2.117,2.047-.618-.784-1.669-1.512-1.781-2.363-.555-4.232-.862-8.497-1.297-13.18Z"/>
      <path d="m429.021,222.701h6.364c-.352,4.512-.601,8.901-1.114,13.259-.098.83-1.241,1.536-1.902,2.299-.689-.704-1.878-1.34-1.984-2.123-.59-4.362-.918-8.759-1.363-13.435Z"/>
      <path d="m418.441,222.699h6.364c-.423,4.684-.764,9.219-1.315,13.728-.082.674-1.419,1.846-1.721,1.718-.87-.369-2.049-1.219-2.146-1.999-.543-4.374-.803-8.784-1.181-13.447Z"/>
      <path d="m480.942,277.568c.444-1.019,1.176-2.012,1.269-3.061.171-1.941.062-3.923-.11-5.872-.13-1.472-1.098-3.138-.641-4.307.346-.885,2.804-1.889,3.515-1.47,1.147.676,2.233,2.458,2.281,3.811.162,4.507-.229,8.994-6.314,10.899Z"/>
      <path d="m385.148,278.05c3.261-4.626,2.021-8.919.088-13.263-.123-.277,1.871-2.153,2.747-2.058,1.181.129,2.802,1.219,3.238,2.299,1.685,4.182-.975,10.384-6.072,13.022Z"/>
      <path d="m251.038,15.216c3.337-3.147,5.204-5.937,1.184-9.39-.496-.426.195-3.418,1.095-3.961.946-.571,3.38-.135,4.162.749,2.573,2.906-.426,12.409-4.139,13.716-.389.137-1.044-.48-2.302-1.113Z"/>
      <path d="m170.718,277.49c.478-1.024.838-2.127,1.456-3.057,1.392-2.095,2.155-3.874-.205-6.034-.878-.805-1.1-2.924-.766-4.225.192-.748,2.477-1.768,3.146-1.409,1.233.661,2.754,2.235,2.774,3.451.075,4.623-.07,9.403-6.406,11.274Z"/>
      <path d="m359.49,265.957c-2.644,1.945-4.164,3.911-5.399,3.745-1.359-.182-3.388-2.314-3.403-3.616-.014-1.29,1.978-3.432,3.348-3.661,1.219-.204,2.79,1.7,5.454,3.532Z"/>
      <path d="m205.494,261.612c.952,1.457,2.769,3.009,2.62,4.343-.16,1.441-2.158,2.678-3.354,4.004-1.209-1.284-3.179-2.449-3.405-3.888-.209-1.327,1.453-2.949,2.291-4.44.616-.006,1.232-.012,1.848-.019Z"/>
      <path d="m189.334,271.971c-1.91-2.899-3.718-4.434-3.598-5.797.125-1.416,2.117-2.667,3.292-3.99,1.23,1.251,3.258,2.386,3.461,3.786.198,1.363-1.471,2.997-3.156,6.002Z"/>
      <path d="m271.134,0c.86,1.512,2.515,3.114,2.358,4.512-.16,1.422-2.105,2.644-3.269,3.953-1.21-1.318-3.216-2.534-3.401-3.983-.174-1.367,1.569-2.977,2.469-4.481.614,0,1.228-.001,1.843-.002Z"/>
      <path d="m343.076,194.62c1.707,3.079,3.381,4.736,3.188,6.136-.192,1.392-2.259,2.527-3.504,3.774-1.136-1.35-3.063-2.634-3.18-4.067-.113-1.384,1.64-2.92,3.496-5.843Z"/>
      <path d="m43.203,331.134c-2.369,2.005-3.972,4.236-4.95,3.989-1.523-.384-3.374-2.32-3.641-3.851-.182-1.045,1.972-3.358,3.311-3.556,1.237-.183,2.779,1.695,5.28,3.419Z"/>
    </g>
  </g>
</svg>